<svg id="SvgjsSvg1054" width="360" height="360" xmlns="http://www.w3.org/2000/svg" version="1.1" xmlns:xlink="http://www.w3.org/1999/xlink" xmlns:svgjs="http://svgjs.com/svgjs"><defs id="SvgjsDefs1055"></defs><g id="SvgjsG1056"><svg xmlns="http://www.w3.org/2000/svg" viewBox="0 0 1307.37 587.4" width="360" height="360"><g data-name="Layer 2" fill="#000000" class="color000 svgShape"><g data-name="outline III" fill="#000000" class="color000 svgShape"><g data-name="product launch" fill="#000000" class="color000 svgShape"><g data-name="hand II" fill="#000000" class="color000 svgShape"><path fill="none" stroke="#3c3c3e" stroke-linecap="round" stroke-linejoin="round" stroke-width="6" d="M311.06 274.78C318.43 291 361 384.46 382.37 432.24c7.55 16.36 16.55 29 26.42 38.66M290 182.15c-23.77 3.22-53.17 14.42-52.09 33.61a1.82 1.82 0 0 0 .07.62M421.4 313.31l-75.64-104.45" class="colorStroke2e186a svgStroke"></path><path fill="#1f1e1e" d="M302.93 236.07c-.38.49-.8 1-1.27 1.52a13 13 0 0 1 1.67.3ZM300.05 223l-2.22-10.06a32.93 32.93 0 0 1-7.23 8.06 16.4 16.4 0 0 1 6.55.73 29.11 29.11 0 0 1 2.9 1.27ZM255.79 97.88l22.25 102c3.86-1.45 7.94-2.05 11.65-.73a24.19 24.19 0 0 1 5.72 2.77l-3.85-17.51c-6.25-8.37-19.39-28.47-12.09-40.91a16.28 16.28 0 0 1 2.38-3.22l-21.27-96.7c-.71-3.09-6-5-9-5.24-8.53-5.24-28.31-11.45-63.79 7.72-34.53 18.66-59.65 17.67-74.49 2.75a3.93 3.93 0 0 0-6.62 3.69l11.32 47a23.27 23.27 0 0 0 5.61 10.42c11.19 12 39 19.68 79.06-2 20.89-11.22 39.92-12.05 53.12-10.04ZM311.12 273.27a59.21 59.21 0 0 1-5.7 3.87 25.94 25.94 0 0 1-9.7 3.67l16 73.27 16.44-3.4ZM307.13 255.12c-.47.45-1 .91-1.5 1.37a18.2 18.2 0 0 1 1.84.18Z" class="colorfe7624 svgShape"></path><path fill="none" stroke="#3c3c3e" stroke-linecap="round" stroke-linejoin="round" stroke-width="6" d="M276.35 268.61c3.79 10.58 15.17 16.95 29.07 8.53 16.14-9.77 13.81-15.7 5.26-19.58a12 12 0 0 0-3.21-.91" class="colorStroke2e186a svgStroke"></path><path fill="none" stroke="#3c3c3e" stroke-linecap="round" stroke-linejoin="round" stroke-width="6" d="M261.17 250.65c0 .39.09.78.16 1.19 2.38 15.44 19.92 22.32 38.15 9.45s15.19-19.47 5-23.07c-.39-.13-.78-.25-1.18-.35" class="colorStroke2e186a svgStroke"></path><path fill="none" stroke="#3c3c3e" stroke-linecap="round" stroke-linejoin="round" stroke-width="6" d="M251.26 232.72a12.28 12.28 0 0 0 0 3.78c2.49 16.13 21.59 22.8 40.64 9.35s15.87-20.34 5.26-24.1a16.38 16.38 0 0 0-6.55-.73" class="colorStroke2e186a svgStroke"></path><path fill="none" stroke="#3c3c3e" stroke-linecap="round" stroke-linejoin="round" stroke-width="6" d="M237.86 215.76c2.81 18.21 24.37 25.74 45.89 10.55s17.93-23 5.94-27.21-27.75 11.43-27.75 11.43M294.58 188.22s-24.51-28.75-15.11-44.77 14.5 12.86 23.28 14.8 43 50.61 43 50.61" class="colorStroke2e186a svgStroke"></path></g><path fill="none" stroke="#3c3c3e" stroke-linecap="round" stroke-linejoin="round" stroke-width="6" d="M1207.92 584.4c-13.65-28.33-101.24-89.71-124.57-105.72M796.41 263.54c-30.27-18.65-53.4-32.62-60.13-36.48-18.53-10.63-57.09-9.59-109.88 10.11" class="colorStroke2e186a svgStroke"></path><path fill="none" stroke="#3c3c3e" stroke-linecap="round" stroke-linejoin="round" stroke-width="6" d="m1057.42 512.06 28.94-37.27-86.45-78.89c-18.95-14.46-53-37.17-90.5-61.33" data-name="shirt" class="colorStroke2e186a svgStroke"></path><path fill="none" stroke="#3c3c3e" stroke-linecap="round" stroke-linejoin="round" stroke-width="6" d="M802 257.94l-28.58 34.17c-24 28.74-21 71.75 7.5 96.09.49.42 1 .83 1.5 1.25 23 18.68 53.41 11.09 72.92 2.84A68.33 68.33 0 00884 369.5l30.5-41.87M984.84 231.73c4.09 1.9 28.39 14.43 13.49 37.53-11.49 17.81-27.41 9.35-36.44 2.36M836.43 143.69c-11.48 24.53-19.92 50.41-25.5 71.71" class="colorStroke2e186a svgStroke"></path><path fill="none" stroke="#3c3c3e" stroke-linecap="round" stroke-linejoin="round" stroke-width="6" d="M965.81 230.87c-7 3.09-32 27-40.63 39.32 0 0-28.79-24.57-76.22-44.07 0 0-26.22-9.72-37.83-10.66 0 0-16.76 49.11-5.51 82.39s58.59 43.87 85.42 37.09 33.11-12.56 44.28-26.72 51.16-74.39 51.16-74.39Z" class="colorStroke2e186a svgStroke"></path><path fill="#2f2f2f" d="M975.27 246.51S998.36 230 1013 209.08c13.75-19.63 12.63-46.33-3.61-64-13.6-14.76-29.9-17.24-29.9-17.24s26.78-26.74 6.22-61.89a52.35 52.35 0 0 0-33.37-24.54c-34.23-7.86-52.22 18.13-52.22 18.13s-19-76.31-103.84-56.2c-8.56 2-19.93 10.94-25.94 17.37-36.47 39 30.7 113.89 71.85 129.16 45.18 16.76 71.55 12.27 90.21 7-13.23 2.27-27.53 73.76 42.87 89.64Z" class="color2e186a svgShape"></path><path fill="none" stroke="#3c3c3e" stroke-linecap="round" stroke-linejoin="round" stroke-width="6" d="m853.02 206.27-21.38 35.28 16.3 6.88" class="colorStroke2e186a svgStroke"></path><ellipse cx="836.43" cy="202.27" fill="#2f2f2f" data-name="eye II" rx="7.16" ry="4.63" transform="rotate(-68.49 836.4 202.281)" class="color2e186a svgShape"></ellipse><ellipse cx="878.16" cy="214.46" fill="#2f2f2f" rx="7.16" ry="4.63" transform="rotate(-68.49 878.136 214.473)" class="color2e186a svgShape"></ellipse><path fill="none" stroke="#3c3c3e" stroke-linecap="round" stroke-linejoin="round" stroke-width="6" d="M906.92 193a21.2 21.2 0 0 0-15.79-14.71" class="colorStroke2e186a svgStroke"></path><path fill="none" stroke="#3c3c3e" stroke-linecap="round" stroke-linejoin="round" stroke-width="6" d="M854.73 166.08s-10.72-7.81-17.55.77" data-name="brow" class="colorStroke2e186a svgStroke"></path><path fill="none" stroke="#3c3c3e" stroke-linecap="round" stroke-linejoin="round" stroke-width="6" d="M847.39 276.4c12.58-.27 20.4-4.29 20.4-4.29.14.54 4.69 18.65-7.17 18-12.01.68-13.23-13.71-13.23-13.71Z" class="colorStroke2e186a svgStroke"></path><g fill="#000000" class="color000 svgShape"><path fill="none" stroke="#3c3c3e" stroke-linecap="round" stroke-linejoin="round" stroke-width="6" d="m978.05 535.39 24.11 49h146.56S1022 477.76 982.27 466.21h0c-44.58-16.85-89.31-.8-97 8.34-8.45 10-35.82 36-50.22 38.05s-31.39-2.61-31.14 6.12c.11 4-1.71 16.79 19.77 15.14 14.22-1.1 28.69-2.37 41.76-9.67" class="colorStroke2e186a svgStroke"></path><path fill="none" stroke="#3c3c3e" stroke-linecap="round" stroke-linejoin="round" stroke-width="6" d="M890.91 487.39s-24.63 24.92-23.91 33.14 11.94 25.24 20.34 25.24c6 0 14.18-.28 18.35-.44" class="colorStroke2e186a svgStroke"></path><path fill="none" stroke="#3c3c3e" stroke-linecap="round" stroke-linejoin="round" stroke-width="6" d="M910.74 494.25s-18.86 20-18.63 27.33 9.6 23.34 19.2 25.7 24.87-2.51 24.87-2.51" class="colorStroke2e186a svgStroke"></path><path fill="none" stroke="#3c3c3e" stroke-linecap="round" stroke-linejoin="round" stroke-width="6" d="M931 502.65s-19.25 18.44-9.43 28.63c13.26 11.88 23.5 14.42 29.71 14.42 6.84 0 18.9-11.75 18.9-11.75M941.93 519.62s-2.7 9.36 36.12 15.77" class="colorStroke2e186a svgStroke"></path></g><g fill="#000000" class="color000 svgShape"><path fill="none" stroke="#3c3c3e" stroke-linecap="round" stroke-linejoin="round" stroke-width="6" d="M782.7 548.33c-34.34-44.7-80.51-35.76-80.51-35.76-30.6-82.65-107.89-74.32-107.89-74.32v-23h-98.58v23s-80.86-8.33-111.46 74.32c0 0-67.28-13-99.82 71" class="colorStroke2e186a svgStroke"></path><path fill="none" stroke="#3c3c3e" stroke-linecap="round" stroke-linejoin="round" stroke-width="6" d="M716 551.18c-25.08-26.89-55.55-21-55.55-21-23-62.14-78.3-55.88-78.3-55.88v-63.6h-82.47v63.61s-55.3-6.26-78.3 55.88c0 0-50.58-9.8-75.05 53.37" class="colorStroke2e186a svgStroke"></path><path fill="none" stroke="#3c3c3e" stroke-linecap="round" stroke-linejoin="round" stroke-width="6" d="M665.77 563.9c-18.1-23-42.14-18.38-42.14-18.38-16.17-43.68-55-39.28-55-39.28v-91h-57.97v91s-38.87-4.4-55 39.28c0 0-35.55-6.88-52.74 37.51" class="colorStroke2e186a svgStroke"></path></g><g fill="#000000" class="color000 svgShape"><path fill="#1f1e1e" d="M487.32 404a61 61 0 0 0-.31 27.66l10.93 42.54a2.2 2.2 0 0 0 4.25-.13l9.71-20.73s12.74 45.35 30.76 46.64 35.79-47.31 35.79-47.31l8.19 22.14a2.2 2.2 0 0 0 4.24-.26L602 432.69a82.81 82.81 0 0 0-2-28.69ZM495.72 376.69C466 323.3 458.15 277.11 460 239.12h-2.51s-53.58 72.59-46.69 137.52ZM626.22 239.52c1.55 37.91-6.66 84-36.26 137.17h82.7c6.62-62.38-42.56-131.81-46.44-137.17Z" class="colorfe7624 svgShape"></path><path fill="none" stroke="#2f2e2e" stroke-linecap="round" stroke-linejoin="round" stroke-width="6" d="M590 376.69c45.42-81.64 40.48-146.45 27.21-190.84S572.77 92 543.18 92s-60.73 49.5-74 93.89-18.88 109.2 26.53 190.84L483 404h119.74L590 376.69Z" class="colorStrokefe7624 svgStroke"></path><ellipse cx="543.18" cy="271.3" fill="#1f1e1e" rx="5.64" ry="6.71" class="colorfe7624 svgShape"></ellipse><ellipse cx="564.88" cy="271.3" fill="#1f1e1e" rx="5.64" ry="6.71" class="colorfe7624 svgShape"></ellipse><ellipse cx="519.74" cy="271.3" fill="#1f1e1e" rx="5.64" ry="6.71" class="colorfe7624 svgShape"></ellipse><ellipse cx="543.18" cy="215.7" fill="none" stroke="#2f2e2e" stroke-linecap="round" stroke-linejoin="round" stroke-width="6" rx="25.53" ry="30.36" class="colorStrokefe7624 svgStroke"></ellipse><path fill="#1f1e1e" d="M549.15 90.78V42.79a7.38 7.38 0 1 0-11.91 0v47.9c-12.41 2.54-24.8 13-36.15 26.88A159 159 0 0 1 546 114a230.31 230.31 0 0 1 41 5.89c-11.72-15.01-24.85-26.29-37.85-29.11ZM598.27 144.61a186.5 186.5 0 0 0-54.73-10.2c-23.34-.9-41.07 4.33-55.63 10a216.07 216.07 0 0 0-15.51 36C489.86 172 511.21 163 544 163.59c31.17.56 52.65 7.42 68.93 14.68a215.73 215.73 0 0 0-14.66-33.66ZM588.16 376.38q3.24-5.83 6.14-11.54c-10.28-4.19-25-7.63-51.24-7.4-26.52-.23-41.33 3.34-51.58 7.59q2.86 5.64 6.07 11.39s23.28-4.54 45.51-4.35c21.87-.18 45.1 4.31 45.1 4.31Z" class="colorfe7624 svgShape"></path></g><g data-name="remote control" fill="#000000" class="color000 svgShape"><path fill="#1f1e1e" d="M741.39 535.43h115.94v16.44H741.39z" class="colorfe7624 svgShape"></path><path fill="none" stroke="#3c3c3e" stroke-miterlimit="10" stroke-width="8" d="M833.9 535.43v17.77" class="colorStroke2e186a svgStroke"></path><path fill="none" stroke="#2f2e2e" stroke-linecap="round" stroke-linejoin="round" stroke-width="6" d="M922.11 582.91v-31h-249.6V565h-57.08a9.83 9.83 0 1 0 0 9.48h57.08v8.43" class="colorStrokefe7624 svgStroke"></path><path fill="none" stroke="#3c3c3e" stroke-miterlimit="10" stroke-width="8" d="M877.56 554.94v27.97" class="colorStroke2e186a svgStroke"></path></g><path fill="none" stroke="#3c3c3e" stroke-linecap="round" stroke-linejoin="round" stroke-width="6" d="M1304.37 584.4H3" class="colorStroke2e186a svgStroke"></path></g></g></g></svg></g></svg>